<?xml version="1.0" encoding="utf-8"?>
<!-- Generator: Adobe Illustrator 16.0.0, SVG Export Plug-In . SVG Version: 6.00 Build 0)  -->
<!DOCTYPE svg PUBLIC "-//W3C//DTD SVG 1.1//EN" "http://www.w3.org/Graphics/SVG/1.1/DTD/svg11.dtd">
<svg version="1.1" id="Layer_1" xmlns="http://www.w3.org/2000/svg" xmlns:xlink="http://www.w3.org/1999/xlink" x="0px" y="0px"
	 width="712px" height="300px" viewBox="0 0 712 300" enable-background="new 0 0 712 300" xml:space="preserve">
<g id="Layer_1_1_">
	<g>
		<path display="none" fill="#FFFFFF" d="M681.271,200.271c0,14.699,0,29.396,0,44.094c-199.168,0-398.334,0-597.5,0
			c0-18.496,0-36.994,0-55.49c3.373,0,6.747,0,9.728,0c3.264-3.241,2.086-6.992,2.109-10.452
			c0.098-15.106,0.042-30.213,0.042-45.322c0-0.887,0-1.772,0-2.685c2.377-0.716,3.794,0.149,4.397,2.165
			c0.394,1.318,0.542,2.754,0.546,4.136c0.035,16.431,0.022,32.857,0.022,49.288c0,0.875,0,1.752,0,2.825c2.606,0,4.902,0,7.198,0
			c3.298-0.002,4.645-1.319,4.646-4.59c0.004-17.173-0.013-34.346,0.045-51.517c0.003-0.866,0.452-2.294,1.027-2.494
			c1.481-0.511,2.577,0.542,2.872,1.963c0.381,1.841,0.649,3.742,0.655,5.62c0.049,16.015,0.028,32.029,0.028,48.049
			c0,0.945,0,1.891,0,2.969c2.828,0,5.217,0.009,7.606-0.002c1.666-0.007,3.639-1.824,3.64-3.524
			c0.014-16.923,0.077-33.847-0.066-50.77c-0.047-5.625-3.029-9.055-8.482-9.883c-2.866-0.436-5.901-0.3-8.786,0.106
			c-2.529,0.358-4.835,0.546-7.445,0.04c-3.222-0.624-6.71-0.456-9.999-0.001c-3.635,0.501-7.29,1.473-9.784,4.627
			c0-39.141,0-78.279,0-117.419c85.545,0,171.092,0,256.637,0c-0.251,0.17-0.482,0.397-0.76,0.504
			c-8.752,3.41-11.663,12.235-6.624,20.11c12.186,19.039,18.807,39.835,19.271,62.447c0.153,7.431-0.531,14.879-0.82,22.035
			c0.582-1.003,1.524-2.338,2.184-3.802c7.891-17.552,11.185-35.912,10.093-55.152c-0.669-11.813-2.847-23.257-6.476-34.493
			c-1.723-5.336-4.323-9.722-9.931-11.65c111.311,0,222.616,0,333.927,0c0,50.204,0,100.41,0,150.614
			c-0.168-0.449-0.417-0.884-0.485-1.345c-1.165-7.809-5.458-12.953-13.143-14.876c-7.838-1.962-15.759-1.972-23.661-0.162
			c-5.421,1.242-9.487,4.125-12.241,9.087c-2.367,4.264-3.29,8.818-3.313,13.53c-0.105,18.482-0.146,36.966-0.002,55.448
			c0.074,9.502,4.245,15.451,12.41,17.81c9.771,2.821,19.574,2.296,29.182-0.895c1.159-0.385,2.434-1.978,2.684-3.208
			c0.438-2.165,0.123-4.484,0.123-6.673c-3.775,1.23-7.112,2.786-10.61,3.359c-8.164,1.336-14.557-1.719-12.458-11.776
			c3.246-0.293,6.521-0.533,9.779-0.891c11.446-1.256,18.224-7.279,20.899-18.499C680.693,202.438,680.991,201.356,681.271,200.271z
			 M431.651,89.813c-2.162,1.07-3.948,2.403-5.932,2.84c-4.31,0.949-8.703,1.617-13.094,2.07c-4.33,0.446-8.743,0.188-13.051,0.759
			c-12.427,1.645-20.682,8.891-26.004,19.942c-3.688,7.661-5.226,15.803-5.266,24.194c-0.112,23.694,0.035,47.391-0.084,71.087
			c-0.036,6.994-0.613,13.989-0.978,20.98c-0.029,0.532-0.189,1.252-0.557,1.541c-2.107,1.653-7.442-0.521-7.92-3.212
			c-0.257-1.452-0.462-2.936-0.504-4.408c-0.206-7.169-0.465-14.339-0.49-21.506c-0.067-19.156-0.017-38.309-0.03-57.465
			c-0.002-3.495-2.084-6.231-5.332-7.136c-2.896-0.807-6.159,0.491-7.958,3.189c-1.635,2.449-2.501,5.047-2.49,8.1
			c0.082,24.438,0.05,48.875,0.042,73.316c0,1.647,0.025,3.308-0.122,4.948c-0.16,1.776-0.706,3.297-2.699,3.998
			c-3.842,1.355-6.982-0.709-7.185-5.075c-0.406-8.721-0.915-17.444-0.957-26.167c-0.127-26.477,0.128-52.954-0.14-79.425
			c-0.108-10.716-2.952-20.966-8.139-30.426c-7.386-13.469-18.988-20.96-34.046-22.827c-8.225-1.019-16.593-0.847-24.845-1.702
			c-6.718-0.697-13.578-1.5-19.467-7.11c-0.214,3.574-0.477,6.487-0.529,9.404c-0.029,1.636,0.258,3.283,0.463,4.917
			c1.314,10.455,3.737,20.589,8.986,29.848c5.006,8.827,11.977,15.396,22.136,17.628c4.218,0.926,8.667,0.747,12.974,1.34
			c9.628,1.325,16.677,6.262,19.677,15.701c1.3,4.091,1.914,8.553,1.984,12.862c0.238,14.444,0.088,28.896,0.092,43.345
			c0.002,9.74-0.103,19.485,0.058,29.224c0.161,9.759,5.194,15.975,14.419,18.113c2.24,0.518,4.544,0.896,6.837,1.01
			c5.949,0.302,11.901,0.44,17.234-3.001c0.396-0.255,1.282-0.129,1.739,0.152c4.426,2.704,9.294,3.276,14.301,2.895
			c5.24-0.397,10.005-1.959,13.498-6.26c3.835-4.723,5.72-10.106,5.722-16.165c0.004-23.198-0.152-46.4,0.093-69.602
			c0.096-9.265,3.099-13.641,11.23-16.16c1.78-0.551,3.73-0.771,5.601-0.771c8.766,0,15.49-3.708,20.623-10.725
			C429.016,113.859,431.027,102.111,431.651,89.813z M250.239,195.54c0.005,0,0.01,0,0.015,0c0,9.654-0.103,19.31,0.03,28.963
			c0.133,9.691,5.179,16.037,14.352,18.17c6.743,1.565,13.572,1.518,20.397,0.507c6.978-1.03,12.635-4.27,15.323-10.959
			c1.525-3.794,2.569-8.067,2.604-12.134c0.159-19.129,0.142-38.267-0.34-57.388c-0.192-7.69-3.987-13.692-12.262-16.007
			c-8.819-2.466-17.675-2.391-26.484,0.076c-3.499,0.981-6.504,2.853-8.649,5.829c-3.206,4.455-5.032,9.389-4.999,14.97
			C250.277,176.889,250.239,186.216,250.239,195.54z M412.3,222.958c3.449-0.314,6.804-0.563,10.144-0.931
			c11.149-1.232,18.429-7.409,20.736-18.063c0.827-3.815,1.053-7.82,1.07-11.74c0.049-9.559,0.107-19.134-0.389-28.676
			c-0.498-9.58-4.983-14.935-13.492-17.207c-6.438-1.717-13.023-1.698-19.589-0.936c-8.189,0.95-14.62,4.62-17.46,12.759
			c-1.091,3.128-1.761,6.563-1.799,9.866c-0.186,15.514-0.085,31.031-0.081,46.547c0,4.036-0.145,8.078,0.069,12.104
			c0.409,7.757,4.906,13.521,12.313,15.527c9.71,2.629,19.411,2.151,28.98-0.883c0.612-0.192,1.184-0.759,1.6-1.287
			c2.087-2.679,0.735-5.769,1.218-9.002c-1.148,0.49-1.963,0.825-2.769,1.184c-3.857,1.728-7.802,2.999-12.126,2.759
			c-4.395-0.248-7.766-2.581-8.374-6.279C412.05,226.865,412.3,224.939,412.3,222.958z M588.25,222.936
			c3.321-0.298,6.677-0.563,10.023-0.91c14.39-1.5,20.896-11.401,21.434-23.455c0.508-11.451,0.475-22.958,0-34.411
			c-0.416-10.028-4.651-15.439-13.459-17.758c-7.817-2.056-15.769-1.958-23.676-0.159c-5.436,1.237-9.505,4.18-12.225,9.141
			c-2.334,4.263-3.192,8.787-3.194,13.549c-0.013,14.938-0.019,29.879,0.003,44.819c0.009,4.441-0.087,8.903,0.221,13.331
			c0.535,7.776,4.957,13.185,12.402,15.162c9.647,2.562,19.262,2.088,28.753-0.92c0.601-0.188,1.114-0.79,1.568-1.289
			c2.426-2.664,0.87-5.809,1.306-8.698c-3.659,1.194-6.999,2.75-10.496,3.331C592.705,236.033,586.466,233.102,588.25,222.936z
			 M503.603,135.759c0,35.94,0,71.491,0,107.293c5.609,0,10.962,0,16.314,0c3.875-0.003,4.784-0.913,4.784-4.804
			c0.002-33.112,0.002-66.223,0.002-99.333c0-0.965,0-1.928,0-3.067c5.625,0,10.968,0,16.867,0c0.336-2.216,0.79-4.32,0.943-6.447
			c0.162-2.26,0.036-4.542,0.036-6.834c-18.134,0-35.872,0-53.549,0c-2.853,4.134-1.142,8.643-1.67,13.193
			C492.824,135.759,497.991,135.759,503.603,135.759z M167.499,243.063c5.642,0,10.99,0,16.338,0c3.719,0,4.782-1.059,4.783-4.79
			c0.003-19.229,0.002-38.455,0.003-57.68c0-0.967,0-1.93,0-3.156c4.133,0,8-0.164,11.844,0.058
			c2.592,0.152,3.338-1.517,3.613-3.304c0.332-2.165,0.079-4.416,0.079-6.989c-5.242,0-10.299,0-15.331,0c0-11.37,0-22.378,0-33.63
			c6.115,0,12.043-0.087,17.966,0.042c2.425,0.054,3.292-1.635,3.552-3.252c0.397-2.474,0.104-5.058,0.104-7.866
			c-1.163,0-2.045,0-2.926,0c-11.718,0-23.436,0-35.154,0c-4.065,0-4.869,0.791-4.869,4.821
			c-0.001,37.627-0.001,75.257-0.001,112.885C167.499,241.018,167.499,241.833,167.499,243.063z M246.792,233.999
			c-1.552,0-2.952,0.025-4.349-0.006c-3.806-0.089-6.207-1.791-6.637-5.556c-0.513-4.486-0.563-9.037-0.569-13.561
			c-0.039-29.226-0.008-58.451-0.011-87.674c0-1.025-0.123-2.05-0.188-3.086c-6.676-0.566-13.052-1.106-19.506-1.655
			c-0.506,1.455-1.355,2.762-1.358,4.071c-0.074,32.361-0.114,64.722-0.025,97.085c0.029,10.623,6.328,18.056,16.625,19.574
			c4.78,0.705,9.68,0.605,14.406,0.862C247.237,238.744,247.406,237.688,246.792,233.999z M563.727,145.58
			c-0.871-0.333-1.165-0.516-1.48-0.554c-0.57-0.071-1.151-0.079-1.728-0.075c-8.108,0.057-15.721,2.178-23.089,5.427
			c-2.613,1.151-3.769,3.02-3.766,5.815c0.016,27.986,0.01,55.972,0.01,83.956c0,0.887,0,1.765,0,2.902c5.569,0,10.836,0,16.102,0
			c3.387-0.003,4.612-1.25,4.612-4.713c0.003-26.747,0.003-53.495,0.003-80.242c0-3.86,1.632-5.012,5.461-3.812
			c0.612,0.193,1.175,0.549,2.37,1.12C562.754,151.931,563.246,148.71,563.727,145.58z M481.393,155.466
			c0.391-2.898,0.691-5.346,1.059-7.784c0.338-2.257-0.722-2.813-2.805-2.78c-8.261,0.135-16.009,2.241-23.494,5.624
			c-2.465,1.114-3.467,2.875-3.467,5.437c0.004,28.129,0.001,56.263,0.008,84.396c0,0.862,0.084,1.727,0.139,2.705
			c1.638,0,2.953,0.021,4.27-0.006c4.847-0.087,9.691-0.188,14.539-0.286c3.099-4.984,1.408-10.484,1.456-15.712
			c0.212-22.935,0.091-45.872,0.091-68.804c0-4.015,1.595-5.167,5.586-3.996C479.388,154.445,479.949,154.795,481.393,155.466z
			 M345.526,118.279c0.614-0.894,1.555-1.67,1.716-2.582c1.816-10.291,1.946-20.58-0.713-30.76
			c-5.683-21.753-19.261-37.492-37.984-49.125c-7.261-4.513-13.802-2.54-18.106,4.899c-3.642,6.292-1.795,13.108,4.655,16.315
			c4.415,2.197,9.138,3.785,13.497,6.077C330.788,74.776,343.347,92.984,345.526,118.279z M137.449,190.795
			c-0.128,0.284-0.479,0.938-0.713,1.628c-0.341,1.008-0.817,2.046-0.795,3.062c0.012,0.496,0.979,1.328,1.58,1.396
			c3.655,0.401,7.332,0.892,10.997,0.856c6.997-0.068,11.656-6.656,11.575-12.593c-0.212-15.427-0.072-30.859-0.073-46.29
			c0-0.81,0-1.623,0-2.826c-2.553,0-4.919,0-7.286,0c-3.458,0.002-4.508,1.048-4.51,4.566c-0.007,12.872-0.003,25.743-0.003,38.615
			c0,0.881,0,1.76,0,2.623c-3.42,0.184-4.147-0.338-4.541-3.322c-0.247-1.866-0.442-3.759-0.449-5.639
			c-0.04-11.305-0.02-22.608-0.02-33.913c0-0.883,0-1.761,0-2.931c-2.813,0-5.351-0.003-7.891,0.002
			c-2.561,0.004-3.922,1.271-3.928,3.895c-0.032,12.293-0.098,24.59,0.023,36.883c0.063,6.316,3.193,9.929,9.383,11.209
			c2.389,0.494,4.85,0.633,7.286,0.933c0.24,2.004-0.368,3.271-2.449,3.047C142.928,191.707,140.242,191.213,137.449,190.795z
			 M356.325,116.37c0.319,0.157,0.639,0.315,0.96,0.474c0.416-0.737,0.837-1.473,1.253-2.211c1.817-3.206,3.329-6.64,5.507-9.579
			c7.993-10.779,18.876-17.285,31.823-20.303c4.499-1.049,7.422-3.667,9.613-7.454c4.112-7.104-1.007-16.124-9.192-16.241
			c-4.878-0.069-8.31,2.93-11.692,5.732c-10.476,8.681-17.287,19.996-22.353,32.406C359.962,104.794,358.281,110.637,356.325,116.37
			z"/>
		
			<linearGradient id="SVGID_1_" gradientUnits="userSpaceOnUse" x1="628.3311" y1="485.4238" x2="681.2715" y2="485.4238" gradientTransform="matrix(1 0 0 1 0 -291)">
			<stop  offset="0" style="stop-color:#617533"/>
			<stop  offset="1" style="stop-color:#617533"/>
		</linearGradient>
		<path fill="url(#SVGID_1_)" d="M681.271,200.271c-0.28,1.086-0.578,2.168-0.839,3.258c-2.675,11.22-9.452,17.241-20.899,18.497
			c-3.259,0.359-6.532,0.6-9.779,0.89c-2.099,10.057,4.294,13.113,12.458,11.777c3.498-0.571,6.835-2.13,10.61-3.359
			c0,2.19,0.314,4.508-0.123,6.675c-0.249,1.228-1.524,2.82-2.683,3.205c-9.608,3.191-19.41,3.719-29.183,0.896
			c-8.162-2.358-12.334-8.308-12.41-17.81c-0.144-18.484-0.103-36.966,0.002-55.448c0.023-4.714,0.947-9.267,3.313-13.53
			c2.754-4.96,6.82-7.844,12.241-9.087c7.904-1.81,15.823-1.8,23.66,0.162c7.686,1.921,11.979,7.068,13.143,14.876
			c0.067,0.459,0.318,0.896,0.486,1.345C681.271,175.168,681.271,187.72,681.271,200.271z M649.57,155.118
			c0,19.02,0,37.712,0,56.563c2.317,0,4.455,0.085,6.58-0.027c1.617-0.087,2.811-0.868,3.026-2.67
			c0.256-2.122,0.771-4.242,0.79-6.365c0.102-12.299,0.117-24.602,0.089-36.903c-0.004-1.961-0.169-3.972-0.634-5.872
			c-0.598-2.435-1.991-4.421-4.773-4.697C653.031,154.984,651.385,155.118,649.57,155.118z"/>
		
			<linearGradient id="SVGID_2_" gradientUnits="userSpaceOnUse" x1="32.1577" y1="466.3574" x2="105.5171" y2="466.3574" gradientTransform="matrix(1 0 0 1 0 -291)">
			<stop  offset="0" style="stop-color:#617533"/>
			<stop  offset="1" style="stop-color:#617533"/>
		</linearGradient>
		<path fill="url(#SVGID_2_)" d="M32.158,130.596c4.104-5.191,10.117-6.789,16.099-7.615c5.406-0.748,11.147-1.025,16.45,0.004
			c4.293,0.832,8.088,0.522,12.248-0.067c4.748-0.668,9.741-0.89,14.455-0.173c8.973,1.363,13.878,7.001,13.955,16.26
			c0.238,27.841,0.132,55.687,0.111,83.53c-0.002,2.796-3.246,5.787-5.99,5.8c-3.93,0.019-7.862,0.002-12.513,0.002
			c0-1.774,0-3.33,0-4.884c0-26.353,0.035-52.704-0.047-79.055c-0.009-3.087-0.452-6.216-1.076-9.246
			c-0.485-2.337-2.288-4.066-4.726-3.227c-0.947,0.329-1.684,2.674-1.688,4.102c-0.098,28.253-0.069,56.504-0.076,84.758
			c-0.001,5.384-2.215,7.55-7.643,7.552c-3.776,0-7.554,0-11.843,0c0-1.769,0-3.214,0-4.649c0-27.031,0.021-54.06-0.037-81.092
			c-0.005-2.276-0.249-4.638-0.898-6.805c-0.993-3.318-3.323-4.741-7.235-3.562c0,1.501,0,2.955,0,4.417
			c0,24.855,0.093,49.712-0.07,74.571c-0.039,5.688,1.9,11.859-3.47,17.198c-4.906,0-10.457,0-16.005,0
			C32.158,195.807,32.158,163.197,32.158,130.596z"/>
		
			<linearGradient id="SVGID_3_" gradientUnits="userSpaceOnUse" x1="330.5557" y1="355.5527" x2="363.9541" y2="355.5527" gradientTransform="matrix(1 0 0 1 0 -291)">
			<stop  offset="0" style="stop-color:#86163B"/>
			<stop  offset="1" style="stop-color:#86163B"/>
		</linearGradient>
		<path fill="url(#SVGID_3_)" d="M347.345,12.004c5.606,1.928,8.208,6.313,9.931,11.65c3.629,11.235,5.81,22.679,6.476,34.492
			c1.09,19.24-2.203,37.6-10.093,55.152c-0.659,1.463-1.6,2.799-2.184,3.802c0.291-7.155,0.974-14.604,0.82-22.034
			c-0.463-22.612-7.084-43.409-19.271-62.448c-5.04-7.875-2.129-16.701,6.624-20.11c0.278-0.107,0.509-0.333,0.76-0.504
			C342.721,12.004,345.032,12.004,347.345,12.004z"/>
		
			<linearGradient id="SVGID_4_" gradientUnits="userSpaceOnUse" x1="243.8735" y1="443.0889" x2="431.6514" y2="443.0889" gradientTransform="matrix(1 0 0 1 0 -291)">
			<stop  offset="0" style="stop-color:#86163B"/>
			<stop  offset="1" style="stop-color:#86163B"/>
		</linearGradient>
		<path fill="url(#SVGID_4_)" d="M431.651,89.813c-0.624,12.298-2.636,24.047-10.108,34.26
			c-5.133,7.018-11.859,10.725-20.623,10.725c-1.871,0-3.82,0.218-5.601,0.77c-8.132,2.52-11.137,6.895-11.23,16.162
			c-0.244,23.199-0.088,46.401-0.093,69.6c-0.002,6.059-1.886,11.442-5.722,16.165c-3.493,4.303-8.259,5.862-13.498,6.262
			c-5.006,0.382-9.875-0.19-14.301-2.895c-0.457-0.281-1.342-0.409-1.739-0.152c-5.333,3.439-11.286,3.303-17.234,3.001
			c-2.292-0.113-4.597-0.494-6.837-1.01c-9.225-2.139-14.258-8.356-14.419-18.113c-0.161-9.74-0.056-19.485-0.058-29.226
			c-0.004-14.448,0.147-28.9-0.092-43.345c-0.071-4.309-0.684-8.77-1.984-12.862c-3-9.438-10.049-14.374-19.677-15.7
			c-4.307-0.593-8.756-0.414-12.974-1.34c-10.159-2.231-17.13-8.801-22.136-17.628c-5.249-9.258-7.673-19.394-8.985-29.848
			c-0.206-1.634-0.494-3.281-0.463-4.917c0.05-2.917,0.314-5.83,0.528-9.404c5.89,5.61,12.748,6.413,19.467,7.11
			c8.252,0.856,16.621,0.684,24.845,1.702c15.057,1.866,26.66,9.358,34.046,22.827c5.188,9.459,8.031,19.709,8.139,30.426
			c0.269,26.471,0.013,52.948,0.14,79.424c0.041,8.723,0.55,17.448,0.957,26.169c0.204,4.366,3.344,6.429,7.185,5.075
			c1.993-0.699,2.539-2.222,2.699-3.998c0.147-1.639,0.122-3.299,0.122-4.948c0.008-24.442,0.042-48.88-0.042-73.316
			c-0.011-3.053,0.854-5.651,2.491-8.101c1.798-2.699,5.063-3.996,7.958-3.189c3.248,0.905,5.328,3.643,5.331,7.136
			c0.015,19.157-0.038,38.308,0.03,57.464c0.024,7.167,0.284,14.339,0.491,21.508c0.043,1.475,0.247,2.954,0.503,4.406
			c0.478,2.693,5.815,4.865,7.921,3.214c0.367-0.289,0.527-1.009,0.556-1.543c0.364-6.991,0.941-13.986,0.978-20.979
			c0.119-23.696-0.027-47.393,0.084-71.088c0.04-8.39,1.577-16.534,5.266-24.194c5.322-11.051,13.577-18.296,26.004-19.942
			c4.308-0.571,8.721-0.313,13.051-0.759c4.393-0.453,8.785-1.121,13.094-2.069C427.703,92.215,429.489,90.882,431.651,89.813z"/>
		
			<linearGradient id="SVGID_5_" gradientUnits="userSpaceOnUse" x1="250.2148" y1="485.3896" x2="303.0498" y2="485.3896" gradientTransform="matrix(1 0 0 1 0 -291)">
			<stop  offset="0" style="stop-color:#86163B"/>
			<stop  offset="1" style="stop-color:#86163B"/>
		</linearGradient>
		<path fill="url(#SVGID_5_)" d="M250.239,195.54c0-9.324,0.038-18.649-0.015-27.974c-0.033-5.581,1.793-10.515,4.999-14.97
			c2.145-2.976,5.149-4.847,8.648-5.829c8.811-2.466,17.667-2.542,26.484-0.076c8.276,2.315,12.071,8.316,12.262,16.007
			c0.484,19.121,0.5,38.259,0.342,57.388c-0.035,4.066-1.08,8.34-2.605,12.134c-2.687,6.691-8.345,9.929-15.323,10.959
			c-6.825,1.009-13.654,1.059-20.397-0.507c-9.174-2.133-14.219-8.479-14.352-18.17c-0.133-9.653-0.03-19.309-0.03-28.963
			C250.25,195.54,250.245,195.54,250.239,195.54z M281.989,195.557c0-10.802,0.049-21.607-0.055-32.409
			c-0.015-1.671-0.482-3.445-1.179-4.973c-1.039-2.279-3.371-3.055-6.116-2.546c-2.396,0.44-2.849,2.348-3.058,4.224
			c-0.317,2.856-0.506,5.742-0.513,8.617c-0.045,16.742-0.044,33.485,0,50.228c0.007,2.871,0.212,5.756,0.49,8.619
			c0.368,3.774,3.072,6.385,6.158,6.142c3.194-0.257,4.244-1.698,4.26-6.232C282.016,216.67,281.99,206.116,281.989,195.557z"/>
		
			<linearGradient id="SVGID_6_" gradientUnits="userSpaceOnUse" x1="391.3916" y1="485.415" x2="444.2813" y2="485.415" gradientTransform="matrix(1 0 0 1 0 -291)">
			<stop  offset="0" style="stop-color:#86163B"/>
			<stop  offset="1" style="stop-color:#86163B"/>
		</linearGradient>
		<path fill="url(#SVGID_6_)" d="M412.3,222.958c0,1.981-0.252,3.907,0.053,5.74c0.608,3.698,3.979,6.031,8.374,6.277
			c4.322,0.242,8.268-1.03,12.126-2.759c0.806-0.358,1.62-0.691,2.77-1.182c-0.483,3.233,0.866,6.323-1.219,9
			c-0.416,0.532-0.986,1.095-1.6,1.289c-9.569,3.034-19.271,3.512-28.98,0.883c-7.407-2.004-11.904-7.769-12.313-15.527
			c-0.216-4.025-0.069-8.071-0.069-12.105c-0.004-15.514-0.104-31.031,0.081-46.545c0.038-3.305,0.708-6.737,1.799-9.866
			c2.84-8.139,9.269-11.809,17.46-12.758c6.565-0.762,13.15-0.782,19.589,0.938c8.509,2.27,12.994,7.625,13.492,17.207
			c0.496,9.54,0.438,19.117,0.389,28.674c-0.018,3.92-0.243,7.924-1.07,11.74c-2.308,10.655-9.587,16.832-20.736,18.063
			C419.104,222.396,415.749,222.644,412.3,222.958z M412.373,155.137c0,19.032,0,37.723,0,56.575c0.818,0,1.469,0,2.116,0
			c7.164,0.013,7.856,0.664,8.158-7.784c0.426-11.866,0.386-23.75,0.475-35.625c0.018-2.301-0.218-4.611-0.456-6.904
			c-0.357-3.405-2.385-5.964-5.028-6.232C415.943,154.994,414.213,155.137,412.373,155.137z"/>
		
			<linearGradient id="SVGID_7_" gradientUnits="userSpaceOnUse" x1="567.1426" y1="485.3926" x2="620.0752" y2="485.3926" gradientTransform="matrix(1 0 0 1 0 -291)">
			<stop  offset="0" style="stop-color:#617533"/>
			<stop  offset="1" style="stop-color:#617533"/>
		</linearGradient>
		<path fill="url(#SVGID_7_)" d="M588.25,222.936c-1.784,10.166,4.455,13.098,12.66,11.732c3.497-0.577,6.837-2.137,10.496-3.33
			c-0.436,2.89,1.12,6.035-1.307,8.697c-0.454,0.501-0.968,1.101-1.567,1.291c-9.492,3.008-19.107,3.481-28.753,0.92
			c-7.443-1.979-11.865-7.386-12.402-15.163c-0.308-4.427-0.215-8.889-0.221-13.332c-0.02-14.938-0.016-29.879-0.003-44.817
			c0.002-4.76,0.86-9.287,3.194-13.547c2.72-4.964,6.789-7.908,12.225-9.143c7.907-1.799,15.858-1.897,23.676,0.159
			c8.808,2.319,13.043,7.73,13.459,17.758c0.475,11.453,0.508,22.96,0,34.411c-0.537,12.056-7.044,21.955-21.434,23.455
			C594.927,222.373,591.571,222.636,588.25,222.936z M588.137,155.129c0,19.025,0,37.712,0,56.585c1.496,0,2.802,0,4.11,0
			c5.086-0.002,5.175-0.066,5.959-5.07c0.18-1.138,0.343-2.289,0.357-3.436c0.118-9.237,0.246-18.476,0.273-27.714
			c0.014-4.451-0.091-8.906-0.306-13.354c-0.188-3.893-2.253-6.677-5.101-6.978C591.735,154.981,590.004,155.129,588.137,155.129z"
			/>
		
			<linearGradient id="SVGID_8_" gradientUnits="userSpaceOnUse" x1="487.292" y1="473.8086" x2="542.5947" y2="473.8086" gradientTransform="matrix(1 0 0 1 0 -291)">
			<stop  offset="0" style="stop-color:#617533"/>
			<stop  offset="1" style="stop-color:#617533"/>
		</linearGradient>
		<path fill="url(#SVGID_8_)" d="M503.603,135.759c-5.611,0-10.778,0-16.273,0c0.528-4.55-1.183-9.058,1.67-13.193
			c17.677,0,35.418,0,53.549,0c0,2.293,0.126,4.575-0.036,6.834c-0.152,2.127-0.607,4.231-0.943,6.447c-5.899,0-11.24,0-16.867,0
			c0,1.14,0,2.104,0,3.067c0,33.11,0,66.221-0.002,99.333c0,3.891-0.909,4.801-4.784,4.804c-5.351,0-10.704,0-16.314,0
			C503.603,207.248,503.603,171.699,503.603,135.759z"/>
		
			<linearGradient id="SVGID_9_" gradientUnits="userSpaceOnUse" x1="167.499" y1="473.7803" x2="210.5542" y2="473.7803" gradientTransform="matrix(1 0 0 1 0 -291)">
			<stop  offset="0" style="stop-color:#86163B"/>
			<stop  offset="1" style="stop-color:#86163B"/>
		</linearGradient>
		<path fill="url(#SVGID_9_)" d="M167.499,243.063c0-1.23,0-2.046,0-2.86c0-37.628,0-75.258,0.001-112.885
			c0-4.03,0.804-4.821,4.869-4.821c11.719,0,23.437,0,35.154,0c0.881,0,1.763,0,2.926,0c0,2.808,0.294,5.391-0.104,7.866
			c-0.259,1.617-1.127,3.304-3.552,3.252c-5.923-0.129-11.852-0.042-17.966-0.042c0,11.251,0,22.26,0,33.63
			c5.032,0,10.089,0,15.331,0c0,2.573,0.253,4.824-0.079,6.989c-0.275,1.789-1.021,3.456-3.613,3.304
			c-3.845-0.222-7.711-0.058-11.844-0.058c0,1.227,0,2.19,0,3.156c-0.001,19.225,0,38.453-0.003,57.68
			c-0.001,3.729-1.065,4.79-4.783,4.79C178.489,243.063,173.141,243.063,167.499,243.063z"/>
		
			<linearGradient id="SVGID_10_" gradientUnits="userSpaceOnUse" x1="214.0962" y1="474.2578" x2="247.1045" y2="474.2578" gradientTransform="matrix(1 0 0 1 0 -291)">
			<stop  offset="0" style="stop-color:#86163B"/>
			<stop  offset="1" style="stop-color:#86163B"/>
		</linearGradient>
		<path fill="url(#SVGID_10_)" d="M246.792,233.999c0.614,3.688,0.446,4.745-1.613,10.056c-4.726-0.257-9.625-0.157-14.406-0.863
			c-10.298-1.52-16.596-8.952-16.626-19.575c-0.088-32.361-0.048-64.724,0.026-97.085c0.003-1.309,0.853-2.617,1.358-4.071
			c6.454,0.548,12.831,1.087,19.506,1.655c0.065,1.037,0.188,2.062,0.188,3.087c0.002,29.224-0.028,58.449,0.011,87.674
			c0.006,4.521,0.057,9.073,0.569,13.558c0.431,3.769,2.832,5.467,6.637,5.556C243.839,234.026,245.239,233.999,246.792,233.999z"/>
		
			<linearGradient id="SVGID_11_" gradientUnits="userSpaceOnUse" x1="533.6631" y1="485.001" x2="563.7266" y2="485.001" gradientTransform="matrix(1 0 0 1 0 -291)">
			<stop  offset="0" style="stop-color:#617533"/>
			<stop  offset="1" style="stop-color:#617533"/>
		</linearGradient>
		<path fill="url(#SVGID_11_)" d="M563.727,145.58c-0.481,3.132-0.972,6.351-1.506,9.825c-1.195-0.571-1.756-0.927-2.37-1.12
			c-3.829-1.2-5.461-0.049-5.461,3.812c0,26.747,0,53.495-0.003,80.242c0,3.461-1.226,4.71-4.612,4.713c-5.266,0-10.532,0-16.101,0
			c0-1.138,0-2.018,0-2.902c0-27.984,0.005-55.97-0.011-83.956c-0.003-2.795,1.152-4.664,3.766-5.815
			c7.368-3.25,14.98-5.373,23.089-5.427c0.576-0.003,1.158,0.004,1.728,0.075C562.561,145.064,562.857,145.247,563.727,145.58z"/>
		
			<linearGradient id="SVGID_12_" gradientUnits="userSpaceOnUse" x1="452.6836" y1="484.9883" x2="482.5107" y2="484.9883" gradientTransform="matrix(1 0 0 1 0 -291)">
			<stop  offset="0" style="stop-color:#86163B"/>
			<stop  offset="1" style="stop-color:#86163B"/>
		</linearGradient>
		<path fill="url(#SVGID_12_)" d="M481.393,155.466c-1.442-0.671-2.005-1.021-2.621-1.204c-3.993-1.171-5.586-0.019-5.586,3.996
			c0,22.934,0.121,45.871-0.091,68.804c-0.048,5.228,1.643,10.731-1.456,15.713c-4.846,0.097-9.69,0.2-14.539,0.285
			c-1.315,0.024-2.632,0.006-4.27,0.006c-0.055-0.977-0.139-1.843-0.139-2.705c-0.006-28.132-0.004-56.265-0.008-84.396
			c0-2.563,1.004-4.323,3.468-5.437c7.482-3.379,15.232-5.489,23.493-5.623c2.083-0.031,3.143,0.522,2.805,2.781
			C482.084,150.12,481.783,152.567,481.393,155.466z"/>
		
			<linearGradient id="SVGID_13_" gradientUnits="userSpaceOnUse" x1="288.5923" y1="366.8457" x2="348.5708" y2="366.8457" gradientTransform="matrix(1 0 0 1 0 -291)">
			<stop  offset="0" style="stop-color:#86163B"/>
			<stop  offset="1" style="stop-color:#86163B"/>
		</linearGradient>
		<path fill="url(#SVGID_13_)" d="M345.526,118.279c-2.18-25.294-14.74-43.502-36.937-55.175c-4.359-2.292-9.081-3.88-13.497-6.077
			c-6.45-3.207-8.296-10.024-4.655-16.315c4.305-7.439,10.846-9.412,18.106-4.899c18.722,11.634,32.301,27.373,37.984,49.125
			c2.661,10.18,2.53,20.468,0.713,30.759C347.081,116.609,346.142,117.384,345.526,118.279z"/>
		
			<linearGradient id="SVGID_14_" gradientUnits="userSpaceOnUse" x1="110.4331" y1="483.2285" x2="157.73" y2="483.2285" gradientTransform="matrix(1 0 0 1 0 -291)">
			<stop  offset="0" style="stop-color:#617533"/>
			<stop  offset="1" style="stop-color:#617533"/>
		</linearGradient>
		<path fill="url(#SVGID_14_)" d="M120.474,231.569c4.596,0.688,9.014,1.499,13.471,1.979c3.425,0.37,4.427-1.715,4.03-5.012
			c-4.008-0.493-8.057-0.723-11.988-1.537c-10.184-2.102-15.334-8.051-15.438-18.44c-0.199-20.228-0.089-40.455-0.039-60.686
			c0.01-4.316,2.25-6.4,6.463-6.405c4.18-0.01,8.355-0.003,12.984-0.003c0,1.92,0,3.371,0,4.817c0,18.601-0.034,37.196,0.032,55.796
			c0.01,3.096,0.333,6.209,0.738,9.281c0.649,4.904,1.844,5.771,7.472,5.465c0-1.417,0-2.863,0-4.311
			c0-21.18-0.008-42.36,0.004-63.538c0.003-5.787,1.731-7.508,7.42-7.511c3.893,0,7.786,0,11.986,0c0,1.98,0,3.314,0,4.648
			c0.002,25.387-0.229,50.778,0.12,76.161c0.134,9.768-7.533,20.604-19.043,20.716c-6.031,0.06-12.081-0.745-18.095-1.408
			c-0.989-0.108-2.582-1.479-2.599-2.297c-0.036-1.671,0.747-3.379,1.309-5.034C119.684,233.112,120.263,232.037,120.474,231.569z"
			/>
		
			<linearGradient id="SVGID_15_" gradientUnits="userSpaceOnUse" x1="356.3247" y1="379.9492" x2="406.9336" y2="379.9492" gradientTransform="matrix(1 0 0 1 0 -291)">
			<stop  offset="0" style="stop-color:#86163B"/>
			<stop  offset="1" style="stop-color:#86163B"/>
		</linearGradient>
		<path fill="url(#SVGID_15_)" d="M356.325,116.37c1.956-5.732,3.637-11.575,5.92-17.174c5.065-12.41,11.878-23.726,22.353-32.406
			c3.381-2.803,6.813-5.801,11.692-5.732c8.186,0.119,13.305,9.138,9.192,16.241c-2.191,3.786-5.114,6.404-9.613,7.454
			c-12.947,3.018-23.829,9.522-31.823,20.303c-2.179,2.938-3.69,6.373-5.507,9.579c-0.415,0.738-0.836,1.474-1.253,2.211
			C356.964,116.685,356.645,116.527,356.325,116.37z"/>
		<path display="none" fill="#FFFFFF" d="M649.57,155.118c1.814,0,3.46-0.134,5.078,0.027c2.783,0.276,4.176,2.261,4.773,4.697
			c0.465,1.898,0.63,3.909,0.634,5.872c0.028,12.301,0.015,24.603-0.089,36.901c-0.019,2.125-0.532,4.241-0.79,6.365
			c-0.218,1.804-1.409,2.585-3.026,2.672c-2.125,0.112-4.263,0.025-6.58,0.025C649.57,192.83,649.57,174.138,649.57,155.118z"/>
		<path display="none" fill="#FFFFFF" d="M281.989,195.557c0.001,10.558,0.026,21.113-0.012,31.671
			c-0.017,4.534-1.066,5.978-4.26,6.232c-3.087,0.242-5.792-2.368-6.159-6.144c-0.278-2.86-0.482-5.744-0.49-8.617
			c-0.044-16.744-0.045-33.487,0-50.229c0.007-2.873,0.197-5.759,0.513-8.615c0.209-1.878,0.662-3.783,3.057-4.224
			c2.746-0.509,5.077,0.265,6.118,2.545c0.695,1.526,1.163,3.301,1.178,4.972C282.038,173.951,281.989,184.755,281.989,195.557z"/>
		<path display="none" fill="#FFFFFF" d="M412.373,155.137c1.84,0,3.572-0.141,5.267,0.029c2.644,0.269,4.671,2.827,5.028,6.232
			c0.239,2.293,0.474,4.604,0.456,6.904c-0.089,11.875-0.05,23.759-0.475,35.625c-0.302,8.448-0.995,7.797-8.158,7.784
			c-0.649,0-1.298,0-2.117,0C412.373,192.859,412.373,174.167,412.373,155.137z"/>
		<path display="none" fill="#FFFFFF" d="M588.137,155.129c1.867,0,3.599-0.146,5.294,0.035c2.848,0.302,4.913,3.084,5.101,6.979
			c0.217,4.445,0.319,8.9,0.306,13.353c-0.027,9.239-0.155,18.476-0.273,27.713c-0.015,1.146-0.178,2.3-0.357,3.436
			c-0.784,5.004-0.873,5.07-5.959,5.072c-1.309,0-2.614,0-4.11,0C588.137,192.841,588.137,174.154,588.137,155.129z"/>
	</g>
	<text transform="matrix(1 0 0 1 164.8223 285.3721)" fill="#353635" font-family="'ArialMT'" font-size="41.6758">Serving Since 2009</text>
	<text transform="matrix(1 0 0 1 640.6094 127.2363)" fill="#343434" font-family="'ArialMT'" font-size="26.6735">TM</text>
</g>
</svg>
