<?xml version="1.0" encoding="iso-8859-1"?>
<!-- Generator: Adobe Illustrator 18.0.0, SVG Export Plug-In . SVG Version: 6.00 Build 0)  -->
<!DOCTYPE svg PUBLIC "-//W3C//DTD SVG 1.1//EN" "http://www.w3.org/Graphics/SVG/1.1/DTD/svg11.dtd">
<svg version="1.1" id="Capa_1" xmlns="http://www.w3.org/2000/svg" xmlns:xlink="http://www.w3.org/1999/xlink" x="0px" y="0px"
	 viewBox="0 0 486.652 486.652" style="enable-background:new 0 0 486.652 486.652;" xml:space="preserve">
<path d="M467.74,200.292H235.87V67.355c0-11.652-9.48-21.132-21.133-21.132h-26.303V13.591c0-6.352-5.149-11.5-11.5-11.5
	c-6.351,0-11.5,5.148-11.5,11.5v32.632h-95V13.591c0-6.352-5.149-11.5-11.5-11.5c-6.351,0-11.5,5.148-11.5,11.5v32.632H21.132
	C9.479,46.223,0,55.703,0,67.355v167.48c0,11.652,9.479,21.132,21.132,21.132h138.171c-0.011,0.208-0.031,0.413-0.031,0.624V465.65
	c0,10.428,8.484,18.911,18.912,18.911H467.74c10.428,0,18.912-8.483,18.912-18.911V219.204
	C486.652,208.776,478.168,200.292,467.74,200.292z M283.32,223.292h79.284v138.752l-35.667-13.139c-2.566-0.945-5.385-0.945-7.95,0
	l-35.667,13.139V223.292z M126.152,232.967v-24.875h33.5v24.875H126.152z M23,159.092h23.652v26H23V159.092z M69.652,159.092h33.5
	v26h-33.5V159.092z M212.87,185.092h-30.218v-26h30.218V185.092z M159.652,185.092h-33.5v-26h33.5V185.092z M103.152,208.092v24.875
	h-33.5v-24.875H103.152z M182.652,208.092h30.218v24.875h-30.218V208.092z M47.434,69.223v22.368c0,6.352,5.149,11.5,11.5,11.5
	c6.351,0,11.5-5.148,11.5-11.5V69.223h95v22.368c0,6.352,5.149,11.5,11.5,11.5c6.351,0,11.5-5.148,11.5-11.5V69.223h24.436v66.869
	H23V69.223H47.434z M23,208.092h23.652v24.875H23V208.092z M463.652,461.561H182.271v-204.97c0-0.211-0.02-0.416-0.031-0.624h32.497
	c11.653,0,21.133-9.479,21.133-21.132v-11.543h24.45v155.244c0,3.76,1.838,7.282,4.922,9.433c3.084,2.15,7.025,2.659,10.553,1.358
	l47.167-17.375l47.167,17.375c1.29,0.476,2.636,0.709,3.974,0.709c2.322,0,4.622-0.703,6.579-2.067
	c3.085-2.15,4.922-5.673,4.922-9.433V223.292h78.048V461.561z"/>
<g>
</g>
<g>
</g>
<g>
</g>
<g>
</g>
<g>
</g>
<g>
</g>
<g>
</g>
<g>
</g>
<g>
</g>
<g>
</g>
<g>
</g>
<g>
</g>
<g>
</g>
<g>
</g>
<g>
</g>
</svg>
