<?xml version="1.0" encoding="iso-8859-1"?>
<!-- Generator: Adobe Illustrator 18.0.0, SVG Export Plug-In . SVG Version: 6.00 Build 0)  -->
<!DOCTYPE svg PUBLIC "-//W3C//DTD SVG 1.1//EN" "http://www.w3.org/Graphics/SVG/1.1/DTD/svg11.dtd">
<svg version="1.1" id="Capa_1" xmlns="http://www.w3.org/2000/svg" xmlns:xlink="http://www.w3.org/1999/xlink" x="0px" y="0px"
	 viewBox="0 0 454.611 454.611" style="enable-background:new 0 0 454.611 454.611;" xml:space="preserve">
<g>
	<circle cx="107.501" cy="37.417" r="37.417"/>
	<path d="M260.377,146.142c-5.259-8.471-16.391-11.075-24.861-5.815l-36.565,22.703l-0.169-33.758
		c-0.118-23.44-19.284-42.51-42.724-42.51h-17.762c-3.36,8.714-19.755,51.234-23.143,60.02l5.393-25.455
		c0.375-1.766,0.103-3.609-0.767-5.191l-7.34-13.35l6.512-11.845c0.452-0.822,0.436-1.822-0.041-2.63
		c-0.478-0.808-1.372-1.55-2.31-1.55H98.707c-0.938,0-1.781,0.742-2.259,1.55c-0.478,0.808-0.493,1.808-0.041,2.63l6.526,11.869
		l-7.354,13.374c-0.854,1.552-1.132,3.356-0.787,5.094l4.744,25.503c-2.541-6.589-20.08-53.811-22.474-60.021H58.943
		c-23.44,0-42.606,19.07-42.724,42.51l-0.666,132.636c-0.05,9.971,7.992,18.095,17.963,18.145c0.031,0,0.061,0.001,0.093,0.001
		c9.928,0,18.002-8.024,18.052-17.963l0.666-132.636c0.01-1.976,1.616-3.57,3.591-3.565c1.975,0.005,3.572,1.608,3.572,3.582
		l0.009,303.475c0,11.965,9.699,21.665,21.665,21.665s21.665-9.699,21.665-21.665V264.455c0-2.583,2.094-4.677,4.677-4.677
		c2.583,0,4.677,2.094,4.677,4.677v168.491c0,11.965,9.699,21.665,21.665,21.665c11.965,0,21.665-9.699,21.665-21.665
		l-0.385-303.588c-0.003-2.081,1.68-3.772,3.762-3.779s3.776,1.673,3.786,3.754c0,0.04,0,0.079,0,0.119l0.332,66.026
		c0.071,14.198,15.695,22.626,27.577,15.247l63.979-39.724C263.034,165.743,265.637,154.612,260.377,146.142z"/>
	<path d="M423.346,229.961c-24.091-16.105-73.35-28.994-101.787-34.281c0,0-117.5,21.693-117.5,55.521
		c0,15.01,33.968,137.729,33.968,137.729s57.098,64.83,83.532,64.83s83.532-64.829,83.532-64.829
		c3.999-14.357,33.968-122.891,33.968-137.729C439.058,243.443,432.869,236.327,423.346,229.961z M265.043,374.053
		c-12.784-46.507-26.336-98.98-30.07-118.119c18.492-13.477,63.732-24.911,86.586-29.663l0,196.824
		C304.855,415.146,277.658,387.682,265.043,374.053z"/>
</g>
<g>
</g>
<g>
</g>
<g>
</g>
<g>
</g>
<g>
</g>
<g>
</g>
<g>
</g>
<g>
</g>
<g>
</g>
<g>
</g>
<g>
</g>
<g>
</g>
<g>
</g>
<g>
</g>
<g>
</g>
</svg>
